<mxfile host="app.diagrams.net" agent="Mozilla/5.0 (Windows NT 10.0; Win64; x64) AppleWebKit/537.36 (KHTML, like Gecko) Chrome/132.0.0.0 Safari/537.36" version="26.0.10">
  <diagram name="Page-1" id="msAcxuhW6WfLhmKHOhw2">
    <mxGraphModel dx="1221" dy="725" grid="1" gridSize="10" guides="1" tooltips="1" connect="1" arrows="1" fold="1" page="1" pageScale="1" pageWidth="850" pageHeight="1100" math="0" shadow="0">
      <root>
        <mxCell id="0" />
        <mxCell id="1" parent="0" />
        <mxCell id="RjLOwRKGQmy644Ijz_wS-1" value="City Selection Expert" style="label;whiteSpace=wrap;html=1;align=center;verticalAlign=bottom;spacingLeft=0;spacingBottom=4;imageAlign=center;imageVerticalAlign=top;image=img/clipart/Gear_128x128.png;" parent="1" vertex="1">
          <mxGeometry x="300" y="120" width="120" height="90" as="geometry" />
        </mxCell>
        <mxCell id="RjLOwRKGQmy644Ijz_wS-3" value="Internet Search Tool" style="html=1;whiteSpace=wrap;container=1;recursiveResize=0;collapsible=0;" parent="1" vertex="1">
          <mxGeometry x="560" y="270" width="210" height="70" as="geometry" />
        </mxCell>
        <mxCell id="RjLOwRKGQmy644Ijz_wS-4" value="" style="triangle;html=1;whiteSpace=wrap;" parent="RjLOwRKGQmy644Ijz_wS-3" vertex="1">
          <mxGeometry x="20" y="20" width="20" height="30" as="geometry" />
        </mxCell>
        <mxCell id="RjLOwRKGQmy644Ijz_wS-5" value="City Selection Expert" style="label;whiteSpace=wrap;html=1;align=center;verticalAlign=bottom;spacingLeft=0;spacingBottom=4;imageAlign=center;imageVerticalAlign=top;image=img/clipart/Gear_128x128.png;" parent="1" vertex="1">
          <mxGeometry x="300" y="260" width="120" height="90" as="geometry" />
        </mxCell>
        <mxCell id="RjLOwRKGQmy644Ijz_wS-6" value="City Selection Expert" style="label;whiteSpace=wrap;html=1;align=center;verticalAlign=bottom;spacingLeft=0;spacingBottom=4;imageAlign=center;imageVerticalAlign=top;image=img/clipart/Gear_128x128.png;" parent="1" vertex="1">
          <mxGeometry x="300" y="400" width="120" height="90" as="geometry" />
        </mxCell>
      </root>
    </mxGraphModel>
  </diagram>
</mxfile>
